<?xml version="1.0" encoding="UTF-8"?>
<svg id="_レイヤー_2" data-name="レイヤー 2" xmlns="http://www.w3.org/2000/svg" viewBox="0 0 341.28 37.79">
  <defs>
    <style>
      .cls-1 {
        fill: #0055fc;
      }
    </style>
  </defs>
  <g id="_レイヤー_1-2" data-name="レイヤー 1">
    <g>
      <g>
        <g>
          <g>
            <g>
              <path class="cls-1" d="M88.52,16.06c.15-.34.36-.84.6-1.4.24-.56.51-1.18.78-1.76.27-.59.54-1.14.76-1.57.22-.44.39-.76.45-.89.13-.29-.42-.57-.58-.29-.07.13-.23.46-.43.92-.2.46-.43,1.04-.65,1.65-.22.62-.43,1.27-.59,1.86-.16.59-.28,1.12-.34,1.49Z"/>
              <path class="cls-1" d="M86.32,16.18c-.08-.38-.23-.93-.44-1.53-.21-.6-.48-1.26-.76-1.88-.29-.62-.6-1.19-.86-1.64-.13-.22-.25-.42-.35-.57-.1-.15-.17-.26-.22-.32-.2-.27-.71.09-.53.37.08.12.29.43.58.85.28.42.62.96.96,1.54.34.58.66,1.2.94,1.76.28.56.51,1.07.69,1.42Z"/>
              <path class="cls-1" d="M84.63,17.84c-.31-.31-.79-.72-1.39-1.12-.6-.4-1.31-.77-2.03-1.05-.72-.28-1.43-.48-2.01-.58-.29-.05-.54-.09-.75-.11-.1-.01-.19-.02-.26-.03-.07,0-.13,0-.18,0-.39-.01-.4.61-.04.64.04,0,.1,0,.17.01.07,0,.15.01.25.02.19.01.43.04.71.08.55.07,1.25.21,1.95.43.71.22,1.43.51,2.06.83.63.32,1.16.65,1.53.88Z"/>
              <path class="cls-1" d="M88.11,21.55c.23.32.56.78.9,1.33.34.54.67,1.17.94,1.78.27.62.49,1.22.63,1.71.07.24.13.46.17.63.02.09.04.16.06.22.01.06.03.11.04.15.09.31.7.19.63-.15,0-.04-.02-.09-.03-.16-.02-.07-.04-.14-.06-.23-.05-.18-.12-.4-.21-.65-.18-.5-.45-1.12-.78-1.73-.34-.61-.74-1.22-1.16-1.72-.41-.51-.82-.91-1.12-1.17Z"/>
              <path class="cls-1" d="M89.88,19.85c.41.12,1,.29,1.64.52.65.23,1.35.54,1.99.87.65.33,1.23.7,1.69,1.01.23.16.42.29.57.41.08.06.14.11.2.15.05.04.1.08.13.1.29.21.68-.28.39-.51-.03-.03-.08-.06-.13-.11-.06-.04-.13-.09-.21-.15-.16-.12-.37-.25-.61-.4-.49-.3-1.12-.64-1.82-.93-.69-.29-1.44-.54-2.12-.69-.68-.16-1.29-.24-1.72-.26Z"/>
              <path class="cls-1" d="M90.41,17.84c.31-.19.75-.47,1.27-.75.52-.28,1.11-.54,1.69-.75.58-.21,1.15-.36,1.61-.45.23-.05.43-.09.59-.11.08-.01.15-.03.21-.04.06,0,.1-.02.14-.02.29-.05.22-.67-.1-.64-.04,0-.08.01-.15.02-.06.01-.13.03-.22.04-.17.03-.38.08-.62.15-.48.13-1.06.33-1.64.61-.58.27-1.17.61-1.65.96-.49.35-.88.71-1.13.98Z"/>
            </g>
            <path class="cls-1" d="M90.19,16.23c.62-.65,1.53-1.57,2.61-2.55.07-.06.13-.12.2-.19.07-.06.14-.12.21-.18.14-.12.28-.25.42-.38.14-.13.29-.25.44-.38.15-.13.29-.25.44-.38.6-.5,1.21-1,1.82-1.47,1.21-.95,2.4-1.8,3.35-2.47.94-.67,1.63-1.16,1.84-1.42.8-.96.03-1.79-1.02-1.46-.32.1-1.05.6-1.98,1.36-.92.76-2.03,1.8-3.12,2.94-.55.57-1.08,1.18-1.6,1.78-.13.15-.25.3-.38.45-.13.15-.25.3-.37.45-.12.15-.24.3-.36.45-.06.07-.12.15-.18.22-.06.07-.11.15-.17.22-.9,1.17-1.65,2.24-2.15,2.98Z"/>
            <path class="cls-1" d="M87.35,15.09c.13-.85.32-2.08.49-3.49.04-.35.08-.71.12-1.08.04-.37.07-.74.11-1.12.06-.76.12-1.53.16-2.28.08-1.51.09-2.95.05-4.1-.04-1.14-.13-1.98-.25-2.29-.46-1.16-1.55-.82-1.77.18-.07.31,0,1.13.12,2.24.13,1.11.3,2.51.45,3.99.08.74.15,1.5.22,2.25.03.37.06.75.09,1.11.02.37.05.73.07,1.08.09,1.4.13,2.65.14,3.51Z"/>
            <path class="cls-1" d="M84.4,15.74c-.47-.73-1.17-1.79-2.03-2.93-.05-.07-.11-.14-.16-.22-.06-.07-.11-.14-.17-.22-.11-.14-.23-.29-.35-.44-.11-.15-.24-.29-.36-.44-.12-.15-.25-.3-.37-.44-.5-.59-1.03-1.17-1.56-1.73-1.07-1.11-2.16-2.1-3.08-2.83-.92-.73-1.64-1.2-1.96-1.3-1.22-.38-1.61.69-.98,1.49.2.25.87.71,1.8,1.34.92.63,2.09,1.43,3.28,2.33.6.45,1.19.93,1.77,1.41.14.12.29.24.43.37.14.12.29.24.42.36.14.12.27.24.41.37.07.06.14.12.2.18.07.06.13.12.2.18,1.04.96,1.92,1.87,2.5,2.51Z"/>
            <path class="cls-1" d="M86.91,22.7c.12.84.25,2.06.32,3.43,0,.09,0,.17.01.26,0,.09,0,.17,0,.26,0,.18.01.35.02.53,0,.18,0,.36,0,.54,0,.18,0,.37,0,.55,0,.74-.02,1.48-.06,2.2-.07,1.45-.21,2.82-.33,3.9-.12,1.08-.21,1.88-.16,2.18.18,1.17,1.31,1.17,1.77.22.14-.29.25-1.13.29-2.27.04-1.14-.01-2.58-.18-4.08-.08-.75-.19-1.51-.32-2.25-.03-.19-.07-.37-.1-.55-.04-.18-.07-.37-.11-.55-.04-.18-.08-.36-.11-.53-.02-.09-.04-.18-.06-.26-.02-.09-.04-.17-.06-.26-.32-1.36-.68-2.54-.94-3.35Z"/>
            <path class="cls-1" d="M89.86,21.73c.7.58,1.7,1.44,2.74,2.5.07.07.13.13.2.2.06.07.13.14.19.21.13.14.26.28.39.42l.1.11.1.11c.06.07.13.15.2.22.13.15.26.29.39.44.51.6,1.02,1.21,1.5,1.83.95,1.23,1.77,2.46,2.4,3.45.63.98,1.08,1.71,1.32,1.94.45.44.9.49,1.2.29.3-.2.46-.65.33-1.2-.08-.34-.54-1.12-1.28-2.11-.73-.99-1.76-2.16-2.92-3.29-.58-.57-1.2-1.11-1.82-1.64-.16-.13-.32-.25-.47-.38-.08-.06-.16-.13-.23-.19l-.12-.09-.12-.09c-.16-.12-.31-.24-.47-.35-.08-.06-.15-.12-.23-.17-.08-.06-.16-.11-.23-.16-1.22-.88-2.36-1.56-3.15-2.02Z"/>
            <path class="cls-1" d="M91.67,18.72c.87-.07,2.14-.12,3.57-.07.09,0,.18,0,.27,0,.09,0,.18.01.27.02.18.01.37.02.55.03.05,0,.09,0,.14,0,.05,0,.09,0,.14.01.09,0,.19.02.28.02.19.02.38.03.56.05.75.08,1.52.18,2.25.3,1.48.24,2.86.57,3.94.85,1.08.28,1.88.51,2.2.51.61.01.96-.26,1.05-.61.09-.35-.09-.79-.54-1.1-.28-.19-1.12-.45-2.29-.66-1.17-.22-2.66-.37-4.23-.38-.78-.01-1.58.02-2.36.07-.2.01-.39.03-.58.05-.1,0-.19.02-.29.02-.05,0-.1,0-.14.01-.05,0-.1.01-.14.02-.19.02-.38.04-.56.07-.09.01-.18.02-.28.03-.09.01-.18.03-.27.04-1.44.2-2.69.49-3.54.7Z"/>
            <path class="cls-1" d="M91.7,8.05c.12-.22.31-.54.54-.88.23-.34.5-.71.76-1.04.53-.67,1.05-1.21,1.06-1.42.02-.4-.6-.82-.95-.71-.11.03-.27.24-.44.54-.17.3-.34.71-.49,1.15-.14.44-.26.9-.34,1.32-.08.42-.12.79-.15,1.04Z"/>
            <path class="cls-1" d="M98.05,23.17c.25.14.61.35,1,.6.4.25.83.53,1.23.8.82.54,1.53,1.04,1.76,1.04.44-.01.76-.69.57-1.04-.11-.22-.97-.57-1.95-.84-.49-.14-1-.25-1.47-.35-.46-.09-.88-.16-1.16-.2Z"/>
            <path class="cls-1" d="M76.19,14.79c-.32-.12-.8-.29-1.36-.42-.14-.04-.29-.06-.43-.1-.15-.03-.3-.05-.46-.08-.31-.04-.63-.08-.94-.1-.62-.04-1.23,0-1.7.06-.47.07-.81.17-.92.27-.41.36-.07,1.04.34,1.14.13.03.43-.05.84-.16.41-.12.93-.26,1.5-.38.28-.06.58-.11.87-.15.15-.02.29-.04.44-.05.14-.01.29-.03.43-.03.56-.04,1.06-.02,1.4,0Z"/>
          </g>
          <g>
            <circle class="cls-1" cx="101.22" cy="12.33" r=".9"/>
            <circle class="cls-1" cx="93.72" cy="32.51" r=".9"/>
            <circle class="cls-1" cx="81.16" cy="4.71" r=".9"/>
          </g>
        </g>
        <g>
          <path class="cls-1" d="M44.62,36.06v-6.93h.6v6.33h3.6v.61h-4.2Z"/>
          <path class="cls-1" d="M52.79,35.5c.39,0,.72-.08.98-.25.26-.17.47-.38.62-.65.15-.27.26-.58.32-.92.06-.34.09-.69.09-1.04v-3.5h.61v3.5c0,.47-.05.91-.14,1.33-.09.42-.24.79-.45,1.11s-.48.57-.81.76c-.33.19-.74.28-1.22.28s-.91-.1-1.24-.3c-.33-.2-.6-.46-.81-.79-.2-.33-.35-.7-.44-1.11-.09-.42-.13-.85-.13-1.29v-3.5h.6v3.5c0,.36.03.72.1,1.06.06.35.17.65.33.92.15.27.36.48.62.64.26.16.58.24.96.24Z"/>
          <path class="cls-1" d="M57.7,29.13l2.04,3.03,2.04-3.03h.67l-2.39,3.51,2.32,3.42h-.67l-1.97-2.93-1.97,2.93h-.68l2.32-3.42-2.39-3.51h.68Z"/>
          <path class="cls-1" d="M66.67,35.5c.39,0,.72-.08.98-.25.26-.17.47-.38.62-.65.15-.27.26-.58.32-.92.06-.34.09-.69.09-1.04v-3.5h.61v3.5c0,.47-.05.91-.14,1.33-.09.42-.24.79-.45,1.11s-.48.57-.81.76c-.33.19-.74.28-1.22.28s-.91-.1-1.24-.3c-.33-.2-.6-.46-.81-.79-.2-.33-.35-.7-.44-1.11-.09-.42-.13-.85-.13-1.29v-3.5h.6v3.5c0,.36.03.72.1,1.06.06.35.17.65.33.92.15.27.36.48.62.64.26.16.58.24.96.24Z"/>
          <path class="cls-1" d="M71.64,36.06v-6.93h2.62c.27,0,.52.06.74.19s.42.29.59.5c.16.21.29.44.38.7.09.26.14.52.14.79s-.03.5-.1.73-.16.44-.28.62c-.12.19-.27.34-.44.47-.17.13-.36.21-.57.26l1.53,2.68h-.69l-1.47-2.56h-1.84v2.56h-.6ZM72.24,32.9h2.04c.18,0,.35-.04.49-.13.15-.09.28-.21.38-.36.1-.15.19-.32.24-.51s.09-.39.09-.6-.03-.41-.1-.6c-.07-.19-.16-.36-.27-.5-.11-.14-.25-.26-.4-.34s-.32-.13-.49-.13h-1.99v3.16Z"/>
          <path class="cls-1" d="M78,29.13l2.04,3.73,2.05-3.73h.67l-2.41,4.35v2.58h-.6v-2.6l-2.4-4.33h.67Z"/>
        </g>
        <g>
          <path class="cls-1" d="M45.08,19.82l1.07,2.29,1.09-2.29h1.26l-1.77,3.28v1.7h-1.14v-1.71l-1.75-3.27h1.25Z"/>
          <path class="cls-1" d="M53.17,23.79v1.01h-3.5v-4.98h3.44v1.01h-2.29v.97h1.96v.93h-1.96v1.06h2.35Z"/>
          <path class="cls-1" d="M55.92,19.82h1.04l1.82,4.98h-1.18l-.39-1.12h-1.55l-.38,1.12h-1.18l1.82-4.98ZM57.02,22.89l-.58-1.76-.6,1.76h1.18Z"/>
          <path class="cls-1" d="M59.97,24.8v-4.98h2.24c.23,0,.45.05.65.15.2.1.37.23.52.39.14.16.26.34.34.54s.12.4.12.61c0,.15-.02.3-.06.45-.04.14-.09.28-.16.4-.07.13-.16.24-.26.34-.1.1-.21.19-.34.26l1.09,1.85h-1.3l-.95-1.61h-.75v1.61h-1.15ZM61.12,22.19h1.05c.14,0,.25-.06.35-.19.1-.13.15-.29.15-.49s-.06-.37-.17-.49c-.11-.12-.23-.18-.36-.18h-1.02v1.36Z"/>
          <path class="cls-1" d="M68.36,21.28s-.06-.05-.15-.11-.19-.11-.32-.16c-.13-.06-.26-.11-.41-.15s-.3-.06-.45-.06c-.41,0-.62.14-.62.41,0,.08.02.15.07.21s.11.11.2.15c.09.04.2.09.33.12.13.04.28.08.46.13.24.07.45.14.65.21.19.08.35.17.49.29.13.11.24.25.31.42.07.16.11.36.11.59,0,.28-.05.52-.16.71-.1.19-.24.35-.42.47s-.37.21-.6.26-.46.08-.69.08c-.18,0-.37-.01-.56-.04s-.38-.07-.56-.12c-.18-.05-.36-.12-.53-.19s-.33-.16-.47-.26l.5-1s.08.07.18.13c.1.07.23.13.38.2.15.07.32.12.51.18.19.05.38.08.57.08.41,0,.61-.12.61-.37,0-.09-.03-.17-.09-.23-.06-.06-.15-.12-.25-.16-.11-.05-.23-.09-.38-.14-.15-.04-.31-.09-.48-.14-.23-.07-.43-.15-.6-.23-.17-.08-.31-.18-.42-.28-.11-.11-.19-.23-.25-.37-.05-.14-.08-.3-.08-.49,0-.26.05-.49.15-.69.1-.2.23-.37.4-.51.17-.14.36-.24.59-.31s.46-.11.71-.11c.17,0,.34.02.51.05.17.03.33.07.48.13.15.05.3.11.43.18.13.07.26.13.37.2l-.51.95Z"/>
          <path class="cls-1" d="M74.91,24.84c-.37,0-.71-.07-1.01-.22-.3-.15-.56-.34-.78-.57-.22-.24-.38-.51-.5-.81-.12-.3-.18-.62-.18-.94s.06-.64.19-.95c.12-.3.3-.57.52-.8.22-.23.49-.42.79-.55.3-.14.64-.21,1-.21s.71.07,1.01.22c.3.15.56.34.78.58.21.24.38.51.5.81.12.3.18.61.18.93s-.06.64-.19.95-.3.57-.52.8c-.22.23-.48.42-.79.56-.3.14-.64.21-1,.21ZM73.61,22.32c0,.19.03.38.08.56.06.18.14.34.25.48s.25.25.41.34c.16.08.35.13.56.13s.41-.04.58-.13c.16-.09.3-.2.41-.35.11-.14.19-.3.24-.48.05-.18.08-.36.08-.55s-.03-.38-.08-.56c-.06-.18-.14-.34-.25-.48-.11-.14-.25-.25-.41-.33-.16-.08-.35-.12-.56-.12s-.41.04-.57.13-.3.2-.41.34c-.11.14-.19.3-.25.48-.05.18-.08.36-.08.55Z"/>
          <path class="cls-1" d="M78.76,24.8v-4.98h3.38v1.01h-2.23v1.07h1.84v.93h-1.84v1.96h-1.15Z"/>
        </g>
        <g>
          <path class="cls-1" d="M30.4,16.65c-.22,0-.44,0-.67.02l1.52-2.99h7.27l2.45-4.91h-12.69l-5.33,10.94,3.47,3.47h0c1.02-1.01,2.43-1.63,3.98-1.63,3.13,0,5.66,2.54,5.66,5.66s-2.54,5.66-5.66,5.66c-2.65,0-4.87-1.82-5.49-4.27l-4.59-4.59c-.32,1.01-.49,2.08-.49,3.2,0,5.84,4.73,10.57,10.57,10.57s10.57-4.73,10.57-10.57-4.73-10.57-10.57-10.57Z"/>
          <path class="cls-1" d="M18.25,29.99h-6.12l4.14-3.7c2.17-1.82,3.56-4.55,3.56-7.61,0-5.47-4.44-9.91-9.91-9.91S0,13.21,0,18.69c0,2.98,1.32,5.65,3.4,7.47l3.27-3.27c-1.26-.97-2.07-2.49-2.07-4.2,0-2.93,2.38-5.31,5.31-5.31s5.31,2.38,5.31,5.31c0,1.67-.77,3.16-1.98,4.14l-.33.33h0S.25,34.8.25,34.8h6.5s12.82,0,12.82,0l-1.33-4.8Z"/>
        </g>
      </g>
      <g>
        <path class="cls-1" d="M134.26,7.36h-8.68v8.68h8.68V7.36ZM136,36.86h8.68v-8.68h-8.68v8.68ZM123.85,7.36v19.09h-8.68V7.36h8.68ZM115.17,36.86h19.09v-19.09h-8.68v10.41h-10.41v8.68ZM144.68,7.36h-8.68v19.09h8.68V7.36Z"/>
        <polygon class="cls-1" points="167.64 21.29 159.44 21.29 159.44 14.88 157.69 14.88 157.69 29.63 159.44 29.63 159.44 22.89 167.64 22.89 167.64 29.63 169.4 29.63 169.4 14.88 167.64 14.88 167.64 21.29"/>
        <path class="cls-1" d="M185.77,17.15c-.6-.7-1.34-1.28-2.18-1.72-.85-.44-1.8-.66-2.83-.66s-1.91.21-2.75.62c-.84.41-1.58.96-2.2,1.65-.62.69-1.11,1.49-1.46,2.39-.35.9-.53,1.85-.53,2.82s.17,1.86.5,2.76c.33.9.81,1.7,1.41,2.4.61.7,1.35,1.26,2.19,1.68.85.42,1.8.64,2.83.64s1.91-.21,2.75-.62c.84-.41,1.58-.96,2.19-1.64.61-.68,1.1-1.48,1.45-2.38.35-.9.53-1.85.53-2.82,0-.92-.17-1.84-.5-2.73-.33-.89-.8-1.69-1.4-2.4ZM180.74,28.11c-.77,0-1.47-.16-2.09-.48-.63-.32-1.17-.76-1.63-1.3-.46-.54-.82-1.17-1.07-1.87-.25-.7-.38-1.44-.38-2.21,0-.72.12-1.44.37-2.14.24-.69.59-1.33,1.04-1.88.44-.55.99-.99,1.63-1.33.63-.33,1.35-.5,2.13-.5s1.45.16,2.07.48c.63.32,1.18.75,1.63,1.29.46.54.82,1.16,1.08,1.86.26.7.39,1.44.39,2.2,0,.72-.12,1.44-.37,2.14-.24.7-.59,1.33-1.04,1.88-.44.55-.99,1-1.63,1.34-.63.34-1.35.51-2.13.51Z"/>
        <path class="cls-1" d="M202.59,22.31c0,.72-.07,1.44-.21,2.14-.14.69-.38,1.32-.73,1.86-.34.54-.81.97-1.38,1.3-.57.33-1.31.49-2.18.49s-1.58-.16-2.15-.49c-.57-.32-1.03-.75-1.37-1.28-.35-.53-.59-1.16-.74-1.85-.15-.7-.22-1.43-.22-2.18v-7.44h-1.74v7.44c0,.93.1,1.84.31,2.72.21.88.56,1.68,1.04,2.37.49.7,1.13,1.26,1.93,1.69.79.42,1.79.64,2.96.64s2.11-.2,2.9-.61c.79-.4,1.44-.95,1.94-1.64.49-.68.85-1.47,1.07-2.36.22-.88.33-1.83.33-2.81v-7.44h-1.76v7.44Z"/>
        <path class="cls-1" d="M218.22,22.79c-.44-.31-.99-.57-1.61-.77-.61-.2-1.32-.38-2.09-.54-.68-.15-1.28-.3-1.78-.44-.49-.14-.9-.32-1.22-.51-.3-.19-.53-.41-.67-.66-.14-.25-.21-.58-.21-.98,0-.78.27-1.38.81-1.83.55-.45,1.45-.68,2.69-.68.83,0,1.58.14,2.24.41.66.27,1.18.63,1.57,1.07l.16.18.86-1.46-.11-.09c-.62-.54-1.32-.96-2.09-1.26-.77-.3-1.65-.45-2.61-.45-.77,0-1.49.09-2.13.28-.65.19-1.21.46-1.68.82-.47.36-.85.82-1.11,1.36-.26.54-.39,1.16-.39,1.85,0,.61.1,1.13.31,1.55.21.42.52.79.93,1.09.4.29.9.54,1.48.73.57.19,1.25.38,2.01.55.71.16,1.34.32,1.89.48.53.16.98.35,1.33.56.34.21.6.45.76.73.17.28.25.63.25,1.04,0,.78-.29,1.35-.89,1.73-.62.39-1.5.59-2.61.59s-2.05-.19-2.92-.56c-.87-.37-1.57-.84-2.07-1.37l-.16-.16-.88,1.47.11.09c1.62,1.42,3.61,2.13,5.9,2.13.75,0,1.46-.08,2.11-.24.65-.16,1.23-.41,1.7-.75.48-.34.86-.77,1.13-1.28.27-.51.41-1.12.41-1.81s-.12-1.25-.36-1.71c-.24-.46-.59-.86-1.05-1.18Z"/>
        <rect class="cls-1" x="223.9" y="14.9" width="1.74" height="14.73"/>
        <polygon class="cls-1" points="241.61 26.55 232.38 14.94 232.33 14.88 230.98 14.88 230.98 29.63 232.72 29.63 232.72 18.18 241.84 29.57 241.89 29.63 243.36 29.63 243.36 14.9 241.61 14.9 241.61 26.55"/>
        <path class="cls-1" d="M255.94,23.64h3.19v2.18c-.66.78-1.35,1.36-2.06,1.73-.72.37-1.48.56-2.28.56-.74,0-1.44-.16-2.07-.47-.63-.31-1.19-.74-1.66-1.27-.47-.53-.85-1.16-1.11-1.86-.27-.71-.41-1.47-.41-2.25s.12-1.48.36-2.19c.24-.7.58-1.33,1.02-1.87.44-.54.97-.98,1.59-1.31.62-.32,1.32-.49,2.08-.49.93,0,1.77.2,2.49.61.72.4,1.32,1.04,1.78,1.9l.09.17,1.38-.92-.07-.14c-.24-.47-.53-.91-.88-1.3-.35-.4-.76-.74-1.23-1.03-.47-.28-1-.51-1.59-.67-.59-.16-1.25-.24-1.96-.24-.98,0-1.91.21-2.74.62-.84.41-1.56.96-2.16,1.64-.6.68-1.08,1.48-1.41,2.38-.34.89-.51,1.84-.51,2.82s.17,1.86.52,2.75c.34.89.83,1.69,1.44,2.39.61.7,1.35,1.28,2.18,1.7.84.43,1.77.65,2.77.65,1.65,0,3.14-.65,4.44-1.94v1.84h1.56v-7.43h-4.75v1.44Z"/>
        <path class="cls-1" d="M277.01,22.38c0,.95-.03,1.81-.1,2.55-.07.73-.21,1.35-.43,1.84-.21.48-.53.85-.94,1.09-.41.25-.97.37-1.67.37-.56,0-1.07-.07-1.52-.22-.45-.14-.82-.31-1.1-.51l-.18-.13-.53,1.47.11.07c.89.61,1.97.92,3.22.92,1.08,0,1.96-.19,2.6-.55.65-.37,1.15-.89,1.49-1.55.33-.65.55-1.45.66-2.36.1-.9.15-1.92.15-3.01v-7.48h-1.76v7.48Z"/>
        <path class="cls-1" d="M288.17,14.88l-6.17,14.75h1.88l1.85-4.51h6.24l1.87,4.51h1.89l-6.17-14.75h-1.39ZM291.5,23.67h-5.33l2.7-6.5,2.63,6.5Z"/>
        <path class="cls-1" d="M308.75,16.37c-.39-.44-.86-.8-1.4-1.07-.54-.28-1.15-.41-1.79-.41h-6.14v14.75h1.74v-5.32h4.52c.65,0,1.24-.14,1.77-.4.52-.27.98-.62,1.36-1.06.38-.43.67-.94.87-1.51.2-.56.3-1.16.3-1.77,0-.57-.11-1.15-.33-1.71-.22-.56-.52-1.06-.91-1.5ZM301.16,16.48h4.31c.36,0,.72.08,1.05.24.34.16.63.38.88.66.25.28.45.62.6.99.15.38.22.78.22,1.21s-.07.81-.19,1.19c-.13.38-.31.72-.54,1-.23.28-.51.52-.83.69-.32.17-.68.25-1.07.25h-4.44v-6.23Z"/>
        <path class="cls-1" d="M317.66,14.88l-6.17,14.75h1.88l1.85-4.51h6.24l1.87,4.51h1.89l-6.17-14.75h-1.39ZM320.99,23.67h-5.33l2.7-6.5,2.63,6.5Z"/>
        <polygon class="cls-1" points="339.54 14.9 339.54 26.55 330.31 14.94 330.26 14.88 328.91 14.88 328.91 29.63 330.65 29.63 330.65 18.18 339.76 29.57 339.81 29.63 341.28 29.63 341.28 14.9 339.54 14.9"/>
      </g>
    </g>
  </g>
</svg>